<svg id="Flat-Expanded" enable-background="new 0 0 64 64" height="512" viewBox="0 0 64 64" width="512" xmlns="http://www.w3.org/2000/svg"><path d="m3 62v-5.852c0-3.376.86-6.697 2.5-9.648 1.64-2.951 2.5-6.272 2.5-9.648v-16.852c0-9.941 8.059-18 18-18 9.941 0 18 8.059 18 18v16.852c0 3.376.86 6.697 2.5 9.648 1.64 2.951 2.5 6.272 2.5 9.648v5.852z" fill="#e55648"/><path d="m20 49-10.832 2.549c-3.614.85-6.168 4.075-6.168 7.787v2.664h46v-2.664c0-3.712-2.554-6.937-6.168-7.787l-10.832-2.549z" fill="#4ac3ed"/><path d="m20 49 3 13h6l3-13z" fill="#eae8e5"/><path d="m32 42v7c0 3.314-2.686 6-6 6-3.314 0-6-2.686-6-6v-7z" fill="#edc3ae"/><path d="m26 45c-7.732 0-14-6.268-14-14v-11c0-7.732 6.268-14 14-14 7.732 0 14 6.268 14 14v11c0 7.732-6.268 14-14 14z" fill="#f4d4be"/><path d="m12 31c-2.209 0-4-1.791-4-4 0-2.209 1.791-4 4-4z" fill="#edc3ae"/><path d="m40 31c2.209 0 4-1.791 4-4 0-2.209-1.791-4-4-4z" fill="#edc3ae"/><circle cx="20" cy="26" fill="#304b68" r="2"/><circle cx="32" cy="26" fill="#304b68" r="2"/><path d="m26 37c-1.813 0-3.507-.839-4.77-2.362l1.539-1.276c.877 1.056 2.024 1.638 3.231 1.638s2.354-.582 3.23-1.638l1.539 1.276c-1.262 1.523-2.956 2.362-4.769 2.362z" fill="#e55648"/><path d="m12 21s12 0 18-9c2 8 10 9 10 9h1v-1c0-8.284-6.716-15-15-15-8.284 0-15 6.716-15 15v1z" fill="#e55648"/><path d="m40.09 50.91-8.09-1.91-3 13 9-5-1-3zm-28.18 0 3.09 3.09-1 3 9 5-3-13z" fill="#31a9d4"/><path d="m61 30c-2.209 0-4 1.791-4 4v2h-5c-1.105 0-2 .895-2 2 0 1.105.895 2 2 2-1.105 0-2 .895-2 2 0 1.105.895 2 2 2-1.105 0-2 .895-2 2 0 1.105.895 2 2 2-1.105 0-2 .895-2 2 0 1.105.895 2 2 2h2v10h7z" fill="#f4d4be"/><path d="m54 52h4l-4 7z" fill="#edc3ae"/></svg>